<svg width="16" height="12" viewBox="0 0 16 12" fill="none" xmlns="http://www.w3.org/2000/svg">
<path d="M7.48983 9.22C7.48983 8.48 7.28983 7.84 6.87983 7.32C6.25983 6.54 5.04983 6.44 4.34983 6.6C4.05983 4.95 5.45983 2.85 7.26983 1.95L5.87983 0C3.14983 1.3 0.459826 4.28 0.919826 8.05C1.20983 10.43 2.58983 12 4.53983 12C5.38983 12 6.09983 11.75 6.65983 11.25C7.21983 10.75 7.48983 10.07 7.48983 9.22ZM15.5398 9.22C15.5398 8.48 15.3398 7.84 14.9298 7.32C14.2998 6.54 13.0998 6.44 12.3998 6.6C12.1098 4.95 13.5098 2.85 15.3198 1.95L13.9298 0C11.1998 1.3 8.51983 4.28 8.97983 8.05C9.26983 10.43 10.6398 12 12.5898 12C13.4398 12 14.1498 11.75 14.7098 11.25C15.2698 10.75 15.5398 10.07 15.5398 9.22Z" fill="black"/>
</svg>
