<svg width="30" height="25" viewBox="0 0 30 25" fill="none" xmlns="http://www.w3.org/2000/svg">
<path d="M14.8125 9.375C15.1875 9.375 15.375 9.0625 15.375 8.59375V6.40625C15.375 5.9375 15.1875 5.625 14.8125 5.625C14.4375 5.625 14.25 5.9375 14.25 6.40625V8.59375C14.25 9.0625 14.4375 9.375 14.8125 9.375Z" fill="white"/>
<path d="M13.3125 18.5938C13.125 18.9063 12.75 19.0625 12.5625 19.0625C12.375 19.0625 12.375 19.0625 12.375 18.9063V14.6875H11.25V18.75C11.25 19.0625 11.25 19.375 11.4375 19.5313C11.625 19.8438 11.8125 19.8438 12.1875 19.8438C12.5625 19.8438 12.9375 19.6875 13.5 19.2188V19.8438H14.625V14.6875H13.3125V18.5938Z" fill="white"/>
<path d="M7.125 13.9062H8.4375V19.8438H9.75V13.9062H11.0625V12.8125H7.125V13.9062Z" fill="white"/>
<path d="M17.625 14.5313C17.25 14.5313 16.875 14.8438 16.5 15.1562V12.8125H15.375V19.6875H16.5V19.2188C16.875 19.5313 17.25 19.8438 17.625 19.8438C18 19.8438 18.375 19.6875 18.5625 19.2188C18.5625 19.0625 18.75 18.5938 18.75 18.125V16.0938C18.75 15.625 18.75 15.3125 18.5625 15C18.375 14.8438 18.1875 14.5313 17.625 14.5313ZM17.625 18.2812C17.625 18.75 17.4375 18.9063 17.0625 18.9063C16.875 18.9063 16.6875 18.9063 16.5 18.75V15.625C16.6875 15.4688 16.875 15.4687 17.0625 15.4687C17.4375 15.4687 17.625 15.7812 17.625 16.25V18.2812Z" fill="white"/>
<path d="M21.1875 14.5312C20.625 14.5312 20.25 14.6875 19.875 15C19.6875 15.3125 19.5 15.625 19.5 16.25V18.125C19.5 18.75 19.6875 19.0625 19.875 19.375C20.25 19.6875 20.625 19.8437 21.1875 19.8437C21.75 19.8437 22.3125 19.6875 22.5 19.2187C22.6875 19.0625 22.6875 18.9062 22.6875 18.5937V17.8125H21.5625V18.4375C21.5625 18.75 21.375 18.75 21 18.75C20.625 18.75 20.4375 18.4375 20.4375 17.9687V17.0312H22.6875V15.9375C22.6875 15.3125 22.5 15 22.3125 14.6875C22.3125 14.8437 21.75 14.5312 21.1875 14.5312ZM21.75 16.5625H20.625V16.0937C20.625 15.625 20.8125 15.3125 21.1875 15.3125C21.5625 15.3125 21.75 15.625 21.75 16.0937V16.5625Z" fill="white"/>
<path d="M0 0V25H30V0H0ZM17.4375 4.84375H18.5625V9.0625C18.5625 9.21875 18.5625 9.375 18.75 9.375C18.9375 9.375 19.125 9.21875 19.5 8.90625V4.84375H20.625V10H19.5V9.53125C19.125 10 18.5625 10.1562 18.1875 10.1562C17.8125 10.1562 17.625 10 17.4375 9.84375C17.4375 9.6875 17.25 9.375 17.25 9.0625V4.84375H17.4375ZM13.125 6.5625C13.125 6.09375 13.125 5.625 13.5 5.3125C13.875 5 14.25 4.84375 14.8125 4.84375C15.375 4.84375 15.75 5 16.125 5.3125C16.3125 5.625 16.5 5.9375 16.5 6.5625V8.4375C16.5 9.0625 16.3125 9.375 16.125 9.6875C15.75 10 15.375 10.1562 14.8125 10.1562C14.25 10.1562 13.875 10 13.5 9.6875C13.125 9.375 13.125 9.0625 13.125 8.4375V6.5625ZM9.9375 3.125L10.875 5.9375L11.8125 3.125H13.125L11.625 7.34375V10.1562H10.3125V7.34375C10.125 6.71875 9.9375 6.09375 9.5625 5C9.1875 4.375 9 3.75 8.625 3.125H9.9375ZM24 20.1562C23.8125 20.9375 22.875 21.5625 21.9375 21.7188C19.6875 21.875 17.25 21.875 15 21.875C12.75 21.875 10.3125 21.875 8.0625 21.7188C7.125 21.5625 6.1875 21.0938 6 20.1562C5.625 18.9062 5.625 17.6562 5.625 16.4062C5.625 15.3125 5.625 14.0625 6 12.8125C6.1875 12.0312 7.125 11.4062 8.0625 11.25C10.3125 11.0938 12.75 11.0938 15 11.0938C17.25 11.0938 19.6875 11.0938 21.9375 11.25C22.875 11.4062 23.8125 11.875 24 12.8125C24.375 14.0625 24.375 15.3125 24.375 16.4062C24.375 17.6562 24.375 18.9062 24 20.1562Z" fill="white"/>
</svg>
