<svg width="50" height="45" viewBox="0 0 50 45" fill="none" xmlns="http://www.w3.org/2000/svg">
<g clip-path="url(#clip0)">
<path d="M47.2404 45.0002C48.7643 45.0002 50 43.8882 50 42.5166V2.48361C50 1.11182 48.7643 0 47.2404 0H2.75957C1.23516 0 0 1.11182 0 2.48361V42.5166C0 43.8882 1.23516 45.0002 2.75957 45.0002H47.2404Z" fill="#0F3554"/>
<path d="M34.4988 45.0002V27.5738H40.9983L41.9713 20.7825H34.4988V16.4463C34.4988 14.48 35.1057 13.14 38.2387 13.14L42.2346 13.1385V7.06435C41.5432 6.98155 39.1713 6.79663 36.4119 6.79663C30.6506 6.79663 26.7064 9.96157 26.7064 15.774V20.7825H20.1904V27.5738H26.7064V45.0002H34.4988Z" fill="white"/>
</g>
<defs>
<clipPath id="clip0">
<rect width="50" height="45" fill="white"/>
</clipPath>
</defs>
</svg>
